<svg id="b560859c-28aa-487f-8f8f-d800f0b74c42" data-name="Layer 1" xmlns="http://www.w3.org/2000/svg" xmlns:xlink="http://www.w3.org/1999/xlink" width="750" height="1334" viewBox="0 0 750 1334"><defs><style>.\36 2491178-5b14-4963-85e1-ce9d8d8ef76d{fill:#fff;}.\32 770fa1b-d1b4-4f97-9933-d4c60ebfdc35,.\34 46133d6-7fa0-46bd-be96-4c2cb3ffdc40,.\34 77260ca-ae9d-4759-ba9c-5a24dffe84a1,.\35 a140962-a49d-47f6-99f3-120f85c545bb,.b0758141-b04a-4517-8608-72fe1dbfd9f0{opacity:0.5;}.\35 a140962-a49d-47f6-99f3-120f85c545bb{fill:url(#cd88ad99-e000-4aff-b3a4-de6aa16f577d);}.\32 770fa1b-d1b4-4f97-9933-d4c60ebfdc35{fill:url(#18946e53-ea43-43ee-b45c-7cea991e4c8a);}.\34 77260ca-ae9d-4759-ba9c-5a24dffe84a1{fill:url(#3ec38ac4-6977-44c0-81a1-3a669535b14e);}.\34 46133d6-7fa0-46bd-be96-4c2cb3ffdc40{fill:url(#117df99c-d091-413d-8642-c884917a1446);}.b0758141-b04a-4517-8608-72fe1dbfd9f0{fill:url(#3fee5c28-debd-4bae-9920-cc4d723b0751);}.\34 4b9edf2-3566-4cf5-86a7-06f7d103f320{opacity:0.3;fill:url(#6aa6d4d5-542a-40d7-950f-b3d3c8ddaf2e);}</style><linearGradient id="cd88ad99-e000-4aff-b3a4-de6aa16f577d" x1="379" y1="1029.97" x2="478.02" y2="1286.96" gradientUnits="userSpaceOnUse"><stop offset="0.02" stop-color="#98caed"/><stop offset="0.29" stop-color="#fff"/><stop offset="0.38" stop-color="#fafdfe"/><stop offset="0.49" stop-color="#edf6fc"/><stop offset="0.6" stop-color="#d6ebf8"/><stop offset="0.72" stop-color="#b7dcf3"/><stop offset="0.84" stop-color="#8fc8ec"/><stop offset="0.88" stop-color="#7ec0e9"/></linearGradient><linearGradient id="18946e53-ea43-43ee-b45c-7cea991e4c8a" x1="156.09" y1="-83.88" x2="607.13" y2="1465.78" gradientUnits="userSpaceOnUse"><stop offset="0.52" stop-color="#fff"/><stop offset="0.58" stop-color="#fafdfe"/><stop offset="0.64" stop-color="#edf6fc"/><stop offset="0.71" stop-color="#d6ebf8"/><stop offset="0.78" stop-color="#b7dcf3"/><stop offset="0.85" stop-color="#8fc8ec"/><stop offset="0.88" stop-color="#7ec0e9"/></linearGradient><linearGradient id="3ec38ac4-6977-44c0-81a1-3a669535b14e" x1="272.45" y1="-114.73" x2="553.63" y2="1117.5" gradientUnits="userSpaceOnUse"><stop offset="0" stop-color="#fff"/><stop offset="0.16" stop-color="#fafdfe"/><stop offset="0.34" stop-color="#edf6fc"/><stop offset="0.53" stop-color="#d6ebf8"/><stop offset="0.73" stop-color="#b7dbf3"/><stop offset="0.93" stop-color="#8fc7ec"/><stop offset="0.98" stop-color="#83c1ea"/><stop offset="1" stop-color="#7ec0e9"/></linearGradient><linearGradient id="117df99c-d091-413d-8642-c884917a1446" x1="42.45" y1="-798.27" x2="776.3" y2="1723.02" gradientUnits="userSpaceOnUse"><stop offset="0.21" stop-color="#86c3eb"/><stop offset="0.44" stop-color="#fff"/><stop offset="0.46" stop-color="#fafdfe"/><stop offset="0.49" stop-color="#edf6fc"/><stop offset="0.51" stop-color="#d6ebf8"/><stop offset="0.54" stop-color="#b7dcf3"/><stop offset="0.57" stop-color="#8fc8ec"/><stop offset="0.58" stop-color="#7ec0e9"/></linearGradient><linearGradient id="3fee5c28-debd-4bae-9920-cc4d723b0751" x1="1070.72" y1="-77.14" x2="-718.27" y2="1096.78" gradientUnits="userSpaceOnUse"><stop offset="0.23" stop-color="#fff"/><stop offset="0.65" stop-color="#b3daf2"/><stop offset="0.97" stop-color="#7ec0e9"/></linearGradient><linearGradient id="6aa6d4d5-542a-40d7-950f-b3d3c8ddaf2e" x1="894.39" y1="95.65" x2="893.91" y2="304.5" gradientUnits="userSpaceOnUse"><stop offset="0.05" stop-color="#fff"/><stop offset="0.21" stop-color="#e3eff9"/><stop offset="0.41" stop-color="#c5def3"/><stop offset="0.61" stop-color="#b0d3ef"/><stop offset="0.81" stop-color="#a3cbec"/><stop offset="0.99" stop-color="#9fc9eb"/></linearGradient></defs><title>bckgrd</title><rect class="62491178-5b14-4963-85e1-ce9d8d8ef76d" x="-0.13" width="750.13" height="1334"/><path class="5a140962-a49d-47f6-99f3-120f85c545bb" d="M750,1042v290.71L221.87,1334l-30.65-.29-59.69-.55-2.07,0c81.54-105.88,236.4-203.11,427.22-256A1060.54,1060.54,0,0,1,750,1042Z"/><path class="62491178-5b14-4963-85e1-ce9d8d8ef76d" d="M750,1120.74v212L221.87,1334l.32-.34c72.81-78.32,186.09-145.81,321.7-183.41C614.83,1130.58,684.74,1121.08,750,1120.74Z"/><path class="2770fa1b-d1b4-4f97-9933-d4c60ebfdc35" d="M750,1.91V1042.22c-392.23,37.28-604.65,275-618.47,290.94-.48.55-.72.84-.72.84H-.16l0-10.13,1.41-475s0,0,0,0l.48-162.25,0-16.06h0L2,604.5l1.41-87.38L11.69,1.91Z"/><path class="477260ca-ae9d-4759-ba9c-5a24dffe84a1" d="M750,0V498q-1.2,2.4-2.43,4.77c-.71,1.4-1.43,2.79-2.17,4.18C653.67,682.31,493.8,798.43,311.94,798.43c-99.55,0-192.52-34.79-271.33-95.06q-7.68-5.88-15.17-12.07c-.17-.14-.33-.27-.5-.43h0Q13.25,681.22,2,670.77l-.2-.18h0l-1.93-1.81V464s.71-1.45,2.13-4.17V0Z"/><path class="446133d6-7fa0-46bd-be96-4c2cb3ffdc40" d="M750,1.9V336l-.43-.12c-.66-.18-1.33-.35-2-.51a93.75,93.75,0,0,0-17.48-2.48A123.28,123.28,0,0,0,705,334.23q-6.81,1-13.8,2.71a210.9,210.9,0,0,0-22.16,6.66,298,298,0,0,0-29.5,12.49c-7,3.38-14.05,7.07-21.09,11C511.6,426.72,404.35,543,404.35,543,278.72,666.47,155.45,692.27,79.62,694a349.22,349.22,0,0,1-35.37-1c-7.18-.57-13.66-1.31-19.31-2.1h0c-11.6-1.61-19.71-3.39-23.17-4.22l-1.89-.47V0H189.14L390.26.68,455.5.9,497.34,1l49.58.17,8.63,0,56.61.19,8.63,0L654,1.57l58.21.2,30.66.1h0Z"/><path class="b0758141-b04a-4517-8608-72fe1dbfd9f0" d="M750,194v2.09l-2.43-.2A549.45,549.45,0,0,0,691.5,195q-4.08.12-8.38.31c-14,.62-29.79,1.74-46.91,3.64-12.05,1.33-24.78,3-38.08,5.23-18,3-37.06,6.77-56.89,11.69C391.23,253,197,352.32,77.62,610.74Q59.75,649.42,44.25,693q-1.84,5.16-3.64,10.4-8,23.25-15.17,47.93Q12.38,795.94,2,845.41l-.72,3.49s0,0,0,0c-.48,2.29-.95,4.58-1.41,6.89V524s.71-1.45,2.13-4.17c.41-.78.88-1.68,1.41-2.67,26.23-49.53,197.78-352.07,485-376.58a438.46,438.46,0,0,1,64.57-.73q22.26,1.38,45.31,5.08A501.64,501.64,0,0,1,657,158.14q5.43,1.56,10.9,3.27a595.48,595.48,0,0,1,78,30.62c.57.26,1.13.53,1.7.81Q748.78,193.41,750,194Z"/><path class="44b9edf2-3566-4cf5-86a7-06f7d103f320" d="M1038.57,283.12l-20.06-28.6h0L905.2,93l-.34-.48-1-1.43H747.57l.63.9.71,1,92,131.17,4.72,6.73,45.19,64.42,13.33,19,55.61,79.27L983.93,428l56.34,80.32V285.55Z"/><path class="62491178-5b14-4963-85e1-ce9d8d8ef76d" d="M85.06,1332.73l44.4.41-.52.68-44.28.08Z"/><polygon class="62491178-5b14-4963-85e1-ce9d8d8ef76d" points="750 1332.74 221.87 1334 191.22 1333.71 222.19 1333.66 750 1332.74"/></svg>